<?xml version="1.0" standalone="no"?>
<!DOCTYPE svg PUBLIC "-//W3C//DTD SVG 20010904//EN"
 "http://www.w3.org/TR/2001/REC-SVG-20010904/DTD/svg10.dtd">
<svg version="1.0" xmlns="http://www.w3.org/2000/svg"
 width="859.000000pt" height="859.000000pt" viewBox="0 0 859.000000 859.000000"
 preserveAspectRatio="xMidYMid meet">
<metadata>
Created by potrace 1.11, written by Peter Selinger 2001-2013
</metadata>
<g transform="translate(0.000000,859.000000) scale(0.100000,-0.100000)"
fill="#000000" stroke="none">
<path d="M90 4295 l0 -4295 3203 0 c2478 0 3206 3 3215 12 9 9 12 9 12 -3 1
-7 7 1 15 20 19 42 19 54 0 21 -8 -14 -14 -20 -15 -14 0 5 7 19 15 30 19 25
19 40 0 24 -13 -10 -15 -9 -15 9 0 18 3 20 19 11 28 -15 35 -12 20 7 -10 11
-10 14 -1 9 8 -5 12 1 12 19 0 15 -4 24 -10 20 -6 -4 -8 -11 -5 -16 4 -5 2 -9
-3 -9 -6 0 -12 7 -16 15 -5 15 1 17 52 18 15 0 19 3 13 11 -4 6 -7 19 -6 28 2
10 -3 18 -11 18 -17 0 -18 12 -2 28 9 9 9 12 0 12 -7 0 -12 6 -12 14 0 7 -7
19 -15 26 -20 16 -19 5 1 -26 13 -20 14 -28 5 -37 -10 -9 -11 -8 -5 7 6 16 4
18 -9 13 -9 -3 -17 -2 -17 3 0 6 6 10 13 10 7 1 5 6 -5 14 -22 17 -24 51 -3
42 8 -3 15 -2 15 2 0 4 8 8 19 8 13 0 17 -6 13 -21 -4 -16 -2 -18 8 -8 21 20
5 41 -29 37 -17 -2 -31 1 -31 7 0 6 4 8 9 4 5 -3 12 -1 16 4 3 6 11 9 18 7 7
-1 9 -1 4 1 -4 3 -5 9 -1 14 3 5 0 9 -7 9 -7 0 -5 6 6 13 13 10 15 16 6 21 -6
4 -9 12 -6 17 4 5 -2 6 -12 2 -16 -6 -16 -5 -4 10 7 9 18 14 25 10 6 -3 1 5
-10 18 -12 13 -22 31 -22 39 0 8 -3 24 -5 35 -4 15 0 21 13 21 10 0 16 -4 14
-8 -3 -4 -1 -8 3 -8 5 0 9 -9 10 -20 1 -11 -2 -18 -7 -15 -6 3 -7 0 -4 -8 3
-9 13 -13 24 -10 17 5 18 7 5 20 -20 20 -8 38 13 21 15 -12 16 -11 3 4 -7 10
-16 16 -20 13 -4 -2 -13 12 -20 32 l-14 36 -13 -24 c-8 -13 -14 -17 -13 -9 3
23 -12 51 -24 43 -6 -3 -7 -1 -3 6 4 6 11 9 15 6 10 -6 54 41 57 61 4 25 9 26
37 3 15 -11 27 -18 27 -14 0 10 -28 35 -39 35 -5 0 -15 8 -20 18 -6 10 -11 12
-11 4 0 -7 -4 -11 -8 -8 -4 2 -7 -10 -7 -27 2 -36 -10 -57 -33 -57 -8 0 -12 3
-8 7 4 5 12 8 17 8 5 0 8 5 7 10 -2 6 -7 9 -11 7 -5 -1 -4 5 1 15 7 11 6 21
-4 31 -8 7 -11 18 -8 24 4 6 10 5 16 -3 7 -11 8 -9 6 6 -3 21 21 28 34 10 4
-5 8 -1 8 11 0 11 -6 21 -15 21 -8 0 -11 -5 -8 -11 3 -6 -2 -3 -12 6 -21 19
-13 37 8 20 7 -6 17 -8 22 -4 13 9 18 35 5 27 -5 -3 -10 -2 -10 4 0 5 3 11 7
14 5 2 2 2 -4 1 -7 -2 -13 5 -13 15 0 27 -12 33 -32 14 -17 -15 -18 -15 -18 0
0 10 6 17 14 17 7 0 19 7 26 14 10 13 7 14 -14 10 -13 -2 -28 0 -31 6 -4 6
-12 7 -18 3 -7 -4 -6 0 2 10 13 17 36 14 26 -4 -7 -11 3 -11 30 1 11 5 14 9 8
9 -25 2 -28 3 -40 13 -7 6 -10 14 -7 19 3 5 0 9 -5 9 -6 0 -11 5 -11 11 0 6 7
8 16 5 13 -5 14 -2 8 11 -4 10 -7 34 -6 53 0 19 -2 29 -5 23 -2 -7 -12 -13
-21 -13 -13 0 -13 2 3 13 14 11 15 16 5 22 -8 5 -11 4 -7 -2 4 -6 0 -14 -9
-17 -8 -3 -12 -11 -9 -16 4 -6 -13 -29 -37 -52 -23 -23 -32 -33 -18 -22 14 10
-1 -11 -32 -47 -32 -37 -55 -69 -53 -73 3 -3 2 -4 -1 -1 -4 2 -24 -11 -46 -31
-21 -19 -43 -32 -47 -29 -5 2 -15 -3 -22 -13 -13 -15 -12 -16 4 -3 9 7 17 11
17 8 0 -3 -14 -16 -32 -28 -18 -13 -28 -17 -24 -8 5 7 -4 1 -19 -16 -14 -16
-23 -23 -20 -15 4 8 -3 4 -15 -10 -12 -14 -19 -18 -15 -10 4 8 -4 2 -17 -14
-14 -17 -30 -26 -36 -22 -7 4 -12 2 -12 -4 0 -6 -4 -8 -10 -5 -5 3 -10 2 -10
-4 0 -6 -10 -15 -21 -22 -15 -7 -19 -8 -15 0 5 7 1 9 -8 5 -9 -3 -14 -10 -11
-14 6 -10 -24 -22 -36 -14 -5 3 -9 0 -9 -6 0 -6 -4 -8 -10 -5 -5 3 -10 1 -10
-5 0 -6 -4 -8 -10 -5 -6 3 -10 2 -10 -4 0 -6 -7 -7 -17 -4 -11 4 -14 3 -9 -5
5 -8 2 -10 -8 -6 -9 4 -16 1 -16 -6 0 -7 -7 -10 -15 -6 -8 3 -15 1 -15 -4 0
-5 -7 -6 -17 -3 -11 5 -14 3 -8 -6 6 -10 2 -11 -15 -6 -16 5 -20 4 -15 -4 5
-8 -1 -10 -19 -5 -15 3 -26 2 -26 -4 0 -6 -9 -8 -20 -5 -11 3 -20 0 -20 -6 0
-5 -7 -8 -15 -5 -8 3 -20 2 -27 -2 -7 -5 -23 -7 -35 -5 -13 1 -23 -3 -23 -9 0
-7 -12 -9 -35 -4 -22 4 -35 2 -35 -5 0 -7 -310 -9 -1083 -6 -1057 4 -1133 5
-1170 20 -10 4 -21 5 -24 1 -3 -3 -11 -2 -17 3 -6 5 -27 11 -46 14 -58 8 -190
56 -289 104 -224 110 -405 297 -480 497 -12 32 -60 192 -107 355 -48 163 -117
402 -154 531 -38 129 -89 307 -115 395 -56 192 -77 280 -75 318 0 16 -3 33 -6
39 -12 18 -20 311 -10 338 3 8 10 44 16 79 52 298 263 563 547 687 40 17 69
35 65 39 -4 5 -2 6 3 2 8 -4 190 37 190 43 0 3 81 9 113 9 17 0 32 5 32 10 0
6 6 8 14 5 8 -3 39 -1 68 5 29 6 76 13 103 16 28 3 61 9 75 12 14 3 35 5 47 4
11 -1 24 2 27 8 4 6 13 8 21 4 8 -3 23 -2 33 2 9 4 29 7 45 6 15 -2 27 2 27 8
0 6 6 8 13 6 6 -3 82 6 167 20 85 15 166 26 179 26 12 -1 28 2 34 6 7 4 24 6
39 4 16 -1 28 2 28 8 0 6 12 8 30 5 19 -4 30 -2 30 4 0 6 6 9 13 7 6 -3 68 4
137 16 69 11 137 20 152 20 15 0 30 4 33 9 3 5 12 7 20 3 8 -3 23 -2 33 2 9 4
29 7 45 6 15 -2 27 3 27 9 0 7 7 9 16 6 9 -3 53 1 98 9 44 8 95 17 111 19 17
2 44 7 62 11 19 4 57 0 100 -10 37 -10 74 -18 81 -18 6 0 12 -4 12 -9 0 -5 5
-6 10 -3 5 3 10 1 10 -6 0 -7 3 -10 6 -6 3 3 17 -4 31 -16 13 -12 28 -22 32
-22 13 0 70 -58 65 -66 -2 -5 5 -13 16 -19 11 -6 18 -15 15 -21 -4 -5 -1 -9 5
-9 6 0 9 -4 6 -9 -3 -5 1 -12 10 -15 9 -4 14 -13 10 -21 -3 -8 -1 -15 4 -15 5
0 7 -7 4 -15 -4 -8 -2 -15 4 -15 6 0 8 -9 5 -20 -3 -11 -1 -20 4 -20 5 0 9
-54 9 -120 0 -68 -3 -120 -9 -120 -5 0 -6 -12 -3 -26 5 -19 4 -24 -5 -18 -9 5
-10 2 -6 -9 3 -10 2 -17 -3 -17 -5 0 -7 -7 -4 -15 4 -8 1 -15 -6 -15 -6 0 -8
-4 -5 -10 3 -5 1 -10 -5 -10 -6 0 -8 -4 -5 -10 3 -5 2 -10 -3 -10 -5 0 -17
-12 -27 -26 -11 -18 -13 -24 -4 -19 8 4 -6 -12 -31 -37 -25 -24 -48 -43 -51
-41 -4 1 -18 -8 -32 -21 -14 -13 -28 -21 -31 -18 -3 3 -6 0 -6 -7 0 -7 -4 -9
-10 -6 -5 3 -10 1 -10 -5 0 -6 -4 -9 -8 -6 -5 3 -20 -1 -35 -9 -14 -7 -28 -11
-31 -8 -2 3 -10 2 -17 -3 -7 -4 -30 -9 -52 -10 -21 -2 -45 -8 -52 -14 -7 -6
-20 -8 -29 -4 -9 3 -16 2 -16 -4 0 -5 -12 -7 -26 -4 -19 3 -25 1 -20 -7 6 -8
1 -10 -17 -6 -14 4 -28 2 -31 -4 -4 -5 -13 -8 -21 -4 -8 3 -15 0 -15 -7 0 -6
-8 -9 -18 -6 -15 5 -33 2 -112 -19 -8 -2 -15 -4 -15 -5 0 -1 -11 -3 -25 -4
-60 -6 -110 -19 -110 -28 0 -6 -7 -7 -15 -4 -9 3 -44 -1 -78 -10 -34 -9 -71
-17 -82 -19 -11 -2 -20 -4 -20 -5 0 -1 -18 -4 -40 -6 -22 -3 -41 -9 -43 -13
-2 -5 -12 -7 -22 -4 -11 3 -20 1 -20 -4 0 -6 -11 -8 -25 -5 -14 2 -25 0 -25
-7 0 -6 -8 -10 -17 -9 -25 3 -163 -24 -168 -33 -3 -4 -14 -5 -25 -2 -11 3 -20
1 -20 -4 0 -6 -11 -8 -25 -5 -14 2 -25 0 -25 -4 0 -5 -13 -9 -29 -10 -16 -1
-37 -5 -47 -9 -11 -4 -25 -9 -32 -11 -25 -5 -55 -38 -77 -87 -19 -40 -21 -55
-13 -89 10 -46 267 -528 302 -567 70 -79 200 -61 246 34 11 23 20 53 20 68 0
24 -92 213 -146 299 -20 31 -21 37 -8 42 17 7 44 -5 92 -41 17 -13 32 -21 32
-17 0 3 9 -4 20 -17 10 -13 19 -21 20 -18 0 4 17 -10 38 -30 20 -20 65 -62
100 -94 34 -32 62 -61 62 -65 0 -4 20 -29 45 -56 25 -26 45 -52 45 -56 0 -4
11 -19 24 -33 13 -14 22 -28 20 -30 -2 -2 6 -15 18 -29 13 -14 24 -32 26 -39
2 -8 10 -19 17 -25 8 -6 12 -14 8 -17 -3 -4 -1 -7 6 -7 7 0 9 -4 6 -10 -3 -5
-1 -10 5 -10 6 0 9 -4 5 -9 -3 -5 1 -16 9 -24 8 -8 12 -17 9 -21 -4 -3 -1 -6
6 -6 7 0 9 -4 6 -10 -3 -5 -1 -10 5 -10 6 0 9 -4 5 -9 -5 -9 22 -78 35 -91 3
-3 7 -12 8 -20 16 -72 48 -176 54 -178 5 -2 6 -7 3 -12 -8 -13 15 -109 30
-124 8 -7 12 -16 9 -19 -6 -6 54 -57 69 -58 59 -5 87 -5 87 2 0 5 7 6 15 3 20
-8 99 71 92 91 -4 8 -2 17 3 20 13 8 13 52 -1 60 -6 4 -8 14 -5 22 3 8 3 20
-1 26 -3 5 -7 22 -8 36 -4 44 -47 191 -56 191 -5 0 -6 7 -3 15 4 8 1 15 -7 15
-7 0 -10 3 -7 6 8 8 -22 94 -33 94 -4 0 -6 6 -3 14 3 7 -2 20 -10 29 -8 8 -12
17 -9 21 4 3 1 6 -6 6 -7 0 -9 5 -6 10 3 6 1 10 -5 10 -6 0 -8 5 -5 10 3 6 1
10 -5 10 -6 0 -8 5 -5 10 3 6 1 10 -5 10 -6 0 -8 5 -5 10 3 6 1 10 -5 10 -6 0
-8 4 -5 10 3 6 1 10 -4 10 -6 0 -10 3 -9 8 4 12 -61 122 -73 122 -5 0 -7 5 -4
10 3 6 -1 13 -9 16 -9 3 -13 10 -10 15 3 5 -2 12 -10 15 -9 3 -16 12 -16 20 0
7 -9 18 -20 24 -11 6 -18 15 -15 20 3 4 -6 17 -20 28 -13 11 -22 22 -19 25 3
3 -11 17 -30 32 -20 15 -34 30 -31 34 2 4 -25 36 -60 71 -36 36 -65 61 -65 56
0 -4 -9 2 -19 15 -17 21 -17 25 -4 33 8 4 29 10 46 13 18 3 33 8 35 13 2 4 12
6 22 3 12 -3 20 0 20 7 0 7 8 9 21 5 14 -5 19 -3 15 3 -4 6 2 8 14 5 11 -3 20
0 20 6 0 6 8 10 18 9 26 -3 142 23 142 32 0 5 9 6 20 3 12 -3 20 0 20 7 0 7 8
9 19 5 11 -3 22 -1 26 5 3 6 11 8 16 5 5 -4 9 -1 9 5 0 7 7 9 16 6 9 -3 21 -3
27 1 7 4 23 9 37 11 14 1 32 5 40 9 8 3 29 7 45 9 17 3 31 8 33 13 2 5 12 7
22 4 11 -3 20 0 20 6 0 5 7 8 15 5 8 -4 15 -1 15 6 0 6 4 9 9 6 11 -7 131 53
131 65 0 6 5 7 10 4 6 -3 13 1 16 9 3 9 10 14 14 11 5 -3 18 7 30 22 12 16 18
21 14 13 -4 -8 22 14 59 50 65 63 80 81 54 64 -7 -5 -4 -1 8 10 11 10 19 23
17 28 -1 5 5 11 13 14 8 3 12 10 9 15 -3 5 2 12 10 15 9 3 13 10 10 15 -3 5 0
9 6 9 6 0 8 5 5 10 -3 6 -1 10 5 10 6 0 8 5 5 10 -3 5 -1 10 5 10 6 0 8 4 5
10 -3 5 -2 10 4 10 6 0 8 7 5 15 -4 8 -1 15 5 15 6 0 8 7 4 17 -5 11 -3 14 6
8 10 -6 11 -2 6 15 -5 16 -4 20 5 15 9 -5 10 -2 5 14 -4 13 -2 21 5 21 7 0 10
8 7 20 -3 11 -1 20 3 20 9 0 14 71 12 158 -1 41 2 52 14 52 11 0 14 -6 10 -16
-4 -10 -2 -13 6 -8 8 5 9 2 5 -9 -4 -10 -2 -17 4 -17 6 0 8 -7 5 -16 -4 -10
-2 -13 6 -8 8 5 9 2 5 -9 -4 -10 -1 -17 5 -17 6 0 9 -3 6 -6 -4 -3 2 -14 13
-25 11 -11 17 -24 14 -29 -4 -6 -2 -10 3 -10 5 0 22 -17 38 -37 19 -26 22 -33
9 -24 -11 8 5 -11 35 -42 59 -62 82 -78 34 -24 -16 18 -7 10 20 -17 28 -28 46
-44 40 -36 -5 9 2 4 15 -10 13 -14 20 -18 16 -10 -4 10 -1 9 8 -2 8 -10 17
-15 20 -11 4 3 7 1 7 -6 0 -7 5 -9 10 -6 6 3 10 1 10 -5 0 -6 5 -8 10 -5 6 3
10 1 10 -5 0 -6 4 -8 10 -5 6 3 10 2 10 -4 0 -6 7 -7 17 -4 12 5 14 3 8 -7 -6
-10 -4 -12 8 -7 10 4 17 2 17 -4 0 -6 7 -9 15 -6 8 4 17 2 21 -4 3 -5 14 -7
25 -4 10 4 19 3 19 -2 0 -9 39 -13 125 -14 84 -1 143 6 138 15 -4 5 6 6 21 2
16 -4 26 -2 26 5 0 6 7 9 15 5 8 -3 15 -1 15 5 0 6 7 8 16 5 10 -4 13 -2 8 6
-5 8 -2 9 9 5 10 -4 17 -2 17 4 0 6 7 8 16 5 9 -4 13 -2 8 5 -4 7 -1 10 7 7 8
-3 20 2 27 11 8 10 11 10 6 2 -5 -10 -3 -12 5 -7 7 5 10 15 6 23 -5 14 -3 14
12 2 9 -8 14 -9 11 -4 -4 6 2 17 14 24 16 10 19 10 13 -1 -4 -7 3 -2 15 12 12
14 19 18 15 10 -4 -8 3 -4 14 9 12 12 18 28 14 34 -3 5 -2 7 4 4 12 -8 48 30
55 58 3 11 9 29 13 40 4 13 1 12 -9 -5 -8 -14 -15 -20 -16 -14 0 5 7 19 15 30
19 25 19 40 0 24 -13 -10 -15 -9 -15 9 0 18 3 20 19 11 28 -15 35 -12 20 7
-10 11 -10 14 -1 9 8 -5 12 1 12 19 0 15 -4 24 -10 20 -6 -4 -8 -11 -5 -16 4
-5 2 -9 -3 -9 -6 0 -12 7 -16 15 -5 15 1 17 52 18 15 0 19 3 13 11 -4 6 -7 19
-6 29 2 9 -3 17 -11 17 -17 0 -18 12 -2 28 9 9 9 12 0 12 -7 0 -12 6 -12 14 0
7 -7 19 -15 26 -20 16 -19 5 1 -26 13 -20 14 -28 5 -37 -10 -9 -11 -8 -5 7 6
16 4 18 -9 13 -9 -3 -17 -2 -17 3 0 6 6 10 13 10 7 1 5 6 -5 14 -22 17 -24 51
-3 42 8 -3 15 -2 15 2 0 4 8 8 19 8 13 0 17 -6 13 -21 -3 -11 -1 -16 4 -12 5
5 9 31 9 58 0 42 -2 47 -12 32 -8 -10 -9 -19 -4 -23 6 -3 7 -10 3 -16 -9 -13
-52 -16 -52 -3 0 5 8 9 18 9 14 0 15 2 2 10 -10 6 -11 10 -2 10 6 0 12 4 12 9
0 4 -10 6 -23 4 -15 -3 -30 4 -46 21 -21 23 -22 26 -7 32 9 4 20 4 23 0 4 -3
-1 -6 -11 -6 -9 0 -15 -4 -11 -10 3 -5 13 -7 23 -4 13 5 14 4 4 -4 -11 -7 -9
-10 7 -15 12 -3 21 -1 21 5 0 5 6 6 13 3 6 -4 3 1 -8 9 -10 9 -20 27 -21 41
-1 20 2 23 12 14 8 -6 12 -15 9 -19 -2 -4 5 -16 17 -26 12 -11 18 -13 14 -6
-4 7 -1 12 8 12 9 0 16 5 16 10 0 7 -6 7 -20 0 -21 -11 -25 -4 -11 19 5 8 15
11 23 8 8 -3 15 1 15 8 0 7 -8 10 -20 7 -16 -4 -19 -1 -14 11 5 12 1 14 -21 8
-15 -5 -33 -6 -39 -4 -19 7 -15 33 5 33 14 0 15 -2 2 -10 -13 -8 -12 -10 3
-10 11 0 17 8 17 21 0 13 -4 18 -12 13 -7 -4 -10 -4 -6 1 4 4 3 14 -3 21 -6 8
-6 14 0 18 5 4 12 -3 16 -14 3 -11 13 -20 21 -20 17 0 19 17 2 22 -17 6 -1 58
18 58 8 0 13 -4 10 -9 -3 -4 4 -17 17 -27 22 -19 22 -19 6 1 -9 11 -15 27 -14
36 2 12 -3 15 -23 11 -18 -3 -23 -1 -18 7 5 7 -2 21 -16 33 l-23 20 23 -6 c13
-5 22 -3 22 3 0 6 -5 11 -12 11 -6 0 -8 3 -5 6 4 4 17 0 31 -9 22 -15 25 -15
30 0 4 9 4 18 1 21 -3 3 -5 2 -5 -3 0 -4 -8 -1 -17 6 -14 12 -16 12 -9 -1 4
-9 2 -8 -7 2 -8 10 -18 14 -22 10 -5 -4 -5 -2 -2 5 4 6 0 19 -10 28 -15 16
-17 15 -30 -7 -8 -12 -12 -16 -10 -8 2 8 -2 23 -11 33 -10 11 -11 17 -4 17 7
0 12 -4 12 -8 0 -4 9 -8 20 -8 11 0 20 4 20 10 0 5 7 14 17 21 13 9 13 14 3
20 -9 5 -11 4 -6 -3 11 -17 -3 -15 -22 4 -15 15 -15 18 3 33 22 18 28 71 8 71
-7 0 -10 -7 -7 -15 4 -8 1 -15 -5 -15 -6 0 -11 9 -11 20 0 11 6 20 14 20 10 0
13 9 10 29 -5 27 -3 29 20 25 15 -2 26 0 26 6 0 6 -4 9 -9 6 -4 -3 -17 5 -28
17 -15 16 -18 28 -13 42 8 17 9 18 9 2 1 -10 8 -20 16 -23 8 -4 12 -10 9 -15
-3 -5 0 -9 7 -9 6 0 9 8 6 19 -3 11 1 28 9 39 7 11 11 30 9 42 -5 28 -15 39
-15 18 0 -9 -10 -18 -23 -22 -18 -5 -20 -8 -7 -16 14 -9 13 -11 -10 -14 -6 0
-15 -8 -21 -16 -8 -11 -9 -9 -4 9 6 20 4 23 -9 18 -15 -6 -14 -2 3 22 12 16
21 34 21 40 0 6 4 11 10 11 11 0 1 -32 -14 -42 -6 -4 -7 -10 -3 -14 10 -11 49
28 43 43 -3 7 0 13 6 13 7 0 7 4 -1 13 -8 10 -5 19 12 38 12 13 22 30 22 39 1
8 6 14 11 13 6 -1 11 5 11 13 0 12 -3 12 -17 -1 -9 -8 -20 -15 -23 -15 -10 0
-4 24 8 32 7 5 6 8 -1 8 -5 0 -19 -7 -30 -15 -12 -9 -14 -14 -6 -15 7 0 10 -5
7 -10 -4 -6 -3 -10 2 -9 19 3 23 -2 14 -20 -15 -27 -47 -32 -66 -11 -16 18
-16 18 4 13 12 -3 21 -1 21 4 0 15 -36 44 -43 36 -4 -3 -7 -1 -7 5 0 6 4 14
10 17 6 3 10 2 10 -4 0 -6 7 -8 15 -5 8 4 13 10 10 14 -3 5 -1 11 3 14 11 7 3
56 -9 56 -5 0 -6 -7 -3 -15 4 -10 0 -15 -10 -15 -16 0 -16 2 1 30 9 16 26 30
36 30 15 0 16 2 5 14 -11 13 -16 12 -38 -2 -22 -14 -24 -14 -12 0 7 9 15 27
17 39 3 13 9 25 14 27 6 2 8 9 5 17 -3 7 0 16 7 21 7 4 10 3 5 -4 -3 -6 -3
-13 2 -16 4 -2 9 5 9 17 1 12 3 31 5 42 2 11 -2 20 -9 20 -6 0 -15 4 -20 8 -4
5 -3 8 2 7 24 -5 33 1 28 20 -3 11 -10 20 -15 20 -6 0 -8 -6 -5 -13 3 -8 -4
-14 -16 -15 -13 0 -17 2 -10 6 7 4 10 17 6 30 l-5 22 -33 -24 c-22 -17 -32
-20 -32 -11 0 8 4 12 7 10 4 -3 18 5 31 18 17 15 34 21 57 19 27 -3 32 -7 32
-29 0 -19 3 -23 13 -15 6 5 21 12 32 16 12 3 9 4 -7 2 -19 -2 -28 1 -28 11 0
14 -14 22 -46 27 -10 2 -20 9 -22 16 -3 8 0 10 7 6 7 -4 10 -2 9 5 -2 6 3 14
9 16 7 3 13 -2 13 -11 0 -10 6 -13 15 -10 8 4 15 13 15 21 0 8 4 11 10 8 6 -3
7 1 4 10 -9 22 -30 13 -26 -11 2 -18 2 -18 -9 -1 -6 10 -9 28 -6 38 4 17 3 18
-9 8 -11 -9 -14 -8 -14 5 0 11 -4 14 -12 10 -8 -5 -8 -2 1 10 12 15 12 17 0
14 -8 -2 -13 3 -12 10 2 6 -2 12 -8 12 -8 0 -8 5 1 15 7 9 8 15 2 15 -5 0 -12
7 -16 15 -5 13 -3 13 18 0 12 -8 26 -12 29 -8 4 3 7 2 7 -4 0 -6 -7 -14 -16
-17 -8 -3 -12 -11 -9 -16 14 -22 35 11 32 50 -3 35 -2 38 16 29 17 -10 18 -9
3 14 -9 13 -13 27 -9 31 4 4 -1 4 -11 0 -14 -5 -15 -9 -4 -15 10 -7 10 -9 1
-9 -20 0 -28 4 -26 13 2 4 -4 7 -12 7 -9 0 -12 6 -9 15 4 10 0 15 -11 15 -9 0
-13 5 -10 10 9 14 18 13 41 -6 10 -8 12 -12 4 -8 -12 5 -13 4 -3 -6 9 -10 16
-10 26 -2 10 9 16 9 25 0 22 -22 14 11 -9 35 -17 19 -19 19 -13 3 10 -26 -18
-16 -31 11 -6 12 -17 28 -24 37 -11 13 -11 17 3 22 9 4 20 4 23 0 4 -3 1 -6
-5 -6 -7 0 -12 -4 -12 -10 0 -5 6 -10 14 -10 10 0 12 -7 8 -22 -5 -19 -4 -20
10 -7 9 7 14 17 11 22 -7 11 12 8 24 -4 7 -7 12 -6 17 6 3 9 2 14 -2 12 -16
-10 -52 13 -52 33 0 12 -4 19 -9 15 -5 -3 -12 -1 -15 4 -3 5 1 11 9 15 8 3 15
10 15 16 0 14 -37 12 -43 -2 -2 -7 -4 -1 -3 14 2 40 36 46 48 9 2 -8 15 -15
28 -16 22 -2 22 -1 4 12 -10 8 -18 21 -16 28 2 9 -3 13 -12 9 -8 -3 -17 0 -21
6 -4 7 -1 10 10 8 10 -2 20 3 23 11 3 8 0 11 -7 7 -6 -4 -11 -2 -11 4 0 6 -4
9 -9 5 -5 -3 -10 7 -10 22 -1 42 -7 72 -14 79 -4 4 -7 12 -7 18 0 6 5 3 11 -7
6 -9 15 -15 20 -12 5 4 7 11 4 16 -4 5 -1 10 4 10 32 4 36 6 35 14 -12 75 -12
94 -1 99 9 3 9 5 0 5 -7 1 -13 6 -13 12 0 5 5 7 12 3 7 -4 8 -3 4 5 -8 12 18
44 28 34 3 -4 6 -1 6 5 0 6 7 18 16 26 14 15 14 16 0 16 -9 0 -16 -6 -16 -13
0 -8 -11 -19 -24 -25 -21 -9 -25 -8 -29 9 -4 16 -1 19 13 14 13 -4 22 1 30 14
9 18 8 20 -7 14 -16 -6 -16 -5 -4 10 11 13 17 15 28 6 11 -10 12 -9 7 5 -6 16
-34 23 -34 8 0 -5 -6 -9 -14 -9 -8 0 -12 6 -9 14 6 15 -6 17 -27 3 -10 -6 -11
-10 -2 -10 6 0 12 -4 12 -10 0 -5 -7 -10 -16 -10 -13 0 -15 8 -12 35 2 19 0
35 -4 35 -4 0 -8 8 -8 17 0 15 2 15 14 -2 8 -11 12 -26 9 -35 -4 -12 -3 -12 5
-2 5 8 13 13 18 12 5 -1 10 4 12 12 2 9 0 8 -7 -2 -6 -8 -11 -10 -11 -5 0 6 5
16 12 23 9 9 9 15 -1 25 -9 7 -11 7 -8 1 4 -7 1 -14 -6 -17 -8 -3 -14 1 -14 9
0 8 3 14 7 14 4 0 7 7 7 15 0 18 -9 19 -24 4 -7 -7 -12 -6 -17 6 -4 10 -2 14
5 9 16 -10 30 18 17 34 -6 7 -7 12 -2 11 20 -4 31 2 31 16 0 8 -4 15 -9 15 -4
0 -8 5 -8 10 0 18 18 11 25 -10 3 -11 12 -20 20 -20 14 0 15 16 2 37 -4 7 0
16 10 22 10 6 13 11 7 11 -15 0 -24 36 -13 47 6 6 -1 19 -16 33 -25 23 -26 23
-43 6 -9 -11 -11 -16 -4 -12 6 4 12 2 12 -5 0 -8 4 -8 15 1 8 7 15 11 16 9 6
-32 5 -39 -4 -39 -8 0 -7 -3 1 -9 11 -7 11 -9 -2 -14 -9 -4 -15 -3 -15 1 4 22
-3 30 -22 25 -19 -5 -21 -3 -17 21 3 14 1 29 -3 32 -5 3 -9 0 -9 -5 0 -6 -8
-11 -17 -11 -17 1 -17 1 0 11 12 7 15 17 11 34 -5 19 -2 23 13 21 10 -2 18
-10 18 -19 0 -9 4 -17 8 -17 4 0 11 0 15 0 5 0 9 7 9 15 0 8 -4 12 -9 9 -4 -3
-8 -1 -8 4 0 16 33 24 42 10 4 -7 8 -8 8 -2 0 5 -7 19 -15 30 -13 17 -14 17
-15 2 0 -10 -8 -18 -17 -18 -15 0 -16 2 -3 10 10 6 11 10 3 10 -7 0 -13 5 -13
11 0 5 4 8 9 4 5 -3 12 -1 15 4 4 5 -2 8 -11 6 -10 -2 -21 -4 -25 -4 -4 -1
-14 -8 -22 -17 -15 -14 -16 -14 -16 0 0 9 6 16 14 16 7 0 19 7 26 15 10 12 8
14 -9 10 -27 -5 -19 11 9 18 13 3 20 0 20 -9 0 -8 4 -14 9 -14 14 0 20 27 9
38 -8 8 -4 9 13 6 19 -5 21 -3 9 5 -8 5 -11 13 -8 17 4 3 -2 16 -13 27 -19 20
-19 22 -2 28 19 7 38 -22 34 -51 -2 -13 -1 -13 8 0 7 9 6 19 -1 28 -6 7 -11
26 -10 42 0 16 -4 33 -10 36 -7 5 -8 2 -3 -6 6 -9 4 -11 -4 -6 -9 6 -8 13 5
27 15 17 12 21 -12 18 -4 0 -10 5 -14 12 -9 14 -2 41 9 35 4 -3 13 4 20 16 7
11 8 17 2 13 -6 -3 -11 -2 -11 4 0 5 8 15 18 20 9 6 12 11 7 11 -6 0 -22 11
-37 24 -14 14 -28 24 -30 23 -2 -1 4 4 12 11 8 7 13 15 12 18 -2 3 0 9 4 12 3
4 4 -5 2 -20 -3 -16 -1 -28 3 -28 13 0 11 44 -2 57 -7 7 -4 10 13 8 13 -1 15
0 6 2 -10 2 -18 9 -18 14 0 6 -6 7 -12 2 -22 -13 -39 -12 -45 3 -3 8 -9 11
-14 8 -5 -3 -7 -10 -4 -15 4 -5 1 -9 -4 -9 -6 0 -9 10 -7 23 2 12 10 21 19 21
10 -1 14 5 11 19 -4 23 12 47 31 47 6 0 17 -10 24 -22 6 -13 9 -15 7 -6 -3 9
0 19 7 22 7 2 5 5 -4 5 -18 1 -31 23 -33 59 -2 24 9 30 17 10 3 -7 4 -3 4 10
-1 12 -5 22 -10 22 -4 0 -5 5 -2 10 4 6 10 8 15 5 5 -3 11 -1 15 4 3 6 13 7
22 4 11 -4 14 -3 9 6 -5 7 -14 10 -22 7 -8 -3 -14 0 -14 7 0 9 -2 9 -8 0 -11
-17 -44 -20 -49 -3 -4 13 -3 13 6 0 8 -11 11 -12 11 -2 0 7 4 11 9 8 5 -3 14
1 21 10 7 8 19 13 27 10 8 -3 12 -2 8 3 -3 5 1 12 7 15 7 3 3 3 -9 1 -12 -3
-24 -1 -28 5 -8 13 -25 13 -25 -1 0 -5 6 -7 13 -4 6 4 4 0 -7 -9 -14 -11 -24
-13 -38 -5 -10 5 -24 7 -31 3 -9 -5 -9 -3 1 7 10 11 16 11 34 0 19 -12 20 -11
15 8 -3 12 -1 19 4 15 13 -8 11 10 -3 24 -10 10 -10 15 2 22 13 8 12 11 -4 23
-17 13 -22 12 -35 -2 -9 -9 -12 -11 -8 -4 5 6 6 17 2 23 -3 5 1 10 9 10 8 0
17 -4 21 -9 3 -6 14 -9 25 -8 10 1 17 5 14 9 -3 4 -11 5 -19 1 -18 -6 -20 18
-2 36 6 7 8 12 2 11 -33 -7 -23 4 15 15 30 9 37 13 21 14 -16 1 -21 5 -17 16
3 8 2 15 -3 15 -4 0 -8 7 -8 15 0 13 3 13 19 -2 10 -9 21 -13 25 -10 3 4 13 1
21 -6 13 -11 14 -9 1 11 -8 12 -15 18 -17 12 -6 -16 -22 -12 -22 5 0 9 -9 15
-21 15 -15 0 -19 4 -15 16 3 9 6 18 6 21 0 2 7 -3 16 -12 18 -18 30 -13 18 7
-27 43 -13 111 19 91 5 -3 4 4 -2 15 -8 16 -8 22 2 25 6 2 4 3 -6 1 -12 -2
-17 2 -13 11 3 9 -1 12 -15 10 -12 -2 -19 2 -19 11 0 8 5 13 11 11 6 -1 14 4
16 11 3 6 -2 12 -11 12 -9 0 -16 7 -16 16 0 8 4 13 9 9 5 -3 12 -1 16 5 3 5
-1 10 -9 10 -9 0 -16 5 -16 10 0 6 -5 10 -11 10 -8 0 -8 -4 0 -14 9 -11 9 -16
0 -22 -7 -4 -9 -3 -6 3 3 5 -3 17 -14 26 -11 10 -17 22 -14 27 8 13 35 13 35
0 0 -5 4 -10 10 -10 5 0 7 7 3 16 -3 9 0 20 8 25 11 7 11 9 -3 9 -9 0 -20 5
-24 12 -4 7 -3 8 4 4 7 -4 12 -3 12 2 0 5 10 13 23 17 13 4 17 8 9 12 -6 2 -9
10 -5 16 4 8 1 7 -9 -1 -13 -11 -15 -9 -15 15 0 16 2 22 4 15 8 -22 32 19 33
55 0 25 -4 31 -19 30 -11 0 -17 -6 -14 -12 3 -5 0 -4 -8 3 -12 11 -12 14 1 22
13 8 12 10 -2 10 -13 0 -18 8 -18 26 0 14 -4 23 -10 19 -6 -4 -7 -12 -4 -18 4
-7 3 -9 -1 -4 -5 4 -9 16 -10 26 -1 13 4 17 17 13 11 -3 18 -14 18 -31 1 -22
2 -24 11 -8 5 9 8 21 4 26 -3 5 -1 12 5 16 5 3 10 2 10 -3 0 -5 15 -9 33 -9
17 0 24 2 14 4 -11 3 -16 11 -13 18 3 9 0 12 -10 8 -8 -3 -14 1 -14 9 0 19
-33 45 -53 42 -12 -1 -17 5 -17 19 1 19 2 20 13 7 17 -22 53 -24 61 -4 5 14 4
15 -8 5 -11 -9 -15 -8 -19 3 -7 18 8 30 26 20 9 -5 9 -4 0 6 -6 7 -9 19 -6 26
3 9 -2 14 -13 14 -9 0 -14 3 -11 6 10 10 -12 44 -28 44 -7 0 -16 -6 -18 -12
-4 -10 -6 -10 -6 -1 -1 10 -665 13 -3206 13 l-3205 0 0 -4295z m6450 4266 c0
-5 -14 -14 -31 -20 -27 -9 -30 -9 -19 4 7 8 16 12 21 9 5 -3 9 0 9 5 0 6 5 11
10 11 6 0 10 -4 10 -9z m-6 -36 c-4 -10 0 -15 11 -15 15 0 15 -1 1 -16 -12
-11 -20 -13 -33 -5 -10 6 -13 11 -7 11 7 0 14 9 17 20 3 11 8 20 11 20 3 0 3
-7 0 -15z m-233 -118 c-10 -9 -11 -8 -5 6 3 10 9 15 12 12 3 -3 0 -11 -7 -18z
m254 1 c-3 6 -3 12 2 12 4 0 13 -12 20 -26 9 -20 9 -23 -1 -15 -8 7 -16 7 -23
0 -7 -7 -14 -4 -24 7 -9 12 -10 15 -1 10 6 -4 12 -2 12 3 0 6 -5 11 -11 11 -5
0 -7 5 -4 11 5 6 12 4 22 -8 8 -10 12 -12 8 -5z m-235 -32 c0 -3 -4 -8 -10
-11 -5 -3 -10 -1 -10 4 0 6 5 11 10 11 6 0 10 -2 10 -4z m170 -16 c0 -5 -2
-10 -4 -10 -3 0 -8 5 -11 10 -3 6 -1 10 4 10 6 0 11 -4 11 -10z m-5 -30 c-3
-6 0 -13 8 -16 15 -5 17 -27 4 -40 -4 -4 -7 2 -7 14 0 11 -5 24 -10 27 -10 6
-5 25 6 25 3 0 2 -5 -1 -10z m-170 -79 c-6 -5 -25 10 -25 20 0 5 6 4 14 -3 8
-7 12 -15 11 -17z m211 9 c0 -12 -4 -16 -9 -11 -5 5 -6 14 -3 20 10 15 12 14
12 -9z m54 0 c0 -13 -7 -20 -20 -20 -25 0 -25 9 -2 26 22 17 22 17 22 -6z
m-227 -25 c-3 -9 -8 -14 -10 -11 -3 3 -2 9 2 15 9 16 15 13 8 -4z m181 -35
c-18 -34 -20 -35 -40 -15 -9 8 -12 15 -7 15 5 0 14 -5 21 -12 9 -9 12 -7 12 9
0 12 6 24 13 26 6 3 13 6 14 6 1 1 -5 -12 -13 -29z m-216 -5 c-3 -3 -9 2 -12
12 -6 14 -5 15 5 6 7 -7 10 -15 7 -18z m201 -82 c-1 -16 -3 -21 -6 -11 -3 10
-11 15 -21 12 -14 -5 -13 -3 2 10 26 21 26 21 25 -11z m-1939 -87 c0 -4 11 -6
25 -4 14 3 22 1 18 -5 -3 -5 0 -8 8 -5 8 3 20 -1 27 -9 7 -7 22 -13 33 -13 10
0 47 -28 81 -62 33 -33 55 -58 47 -54 -8 4 -6 1 3 -7 10 -8 15 -17 11 -20 -3
-4 -1 -7 6 -7 7 0 9 -4 6 -10 -3 -5 -1 -10 5 -10 6 0 8 -4 5 -10 -3 -5 -2 -10
4 -10 6 0 8 -7 5 -15 -4 -8 -1 -15 5 -15 6 0 8 -7 5 -15 -4 -8 -1 -15 6 -15 6
0 8 -4 5 -10 -3 -5 -3 -16 2 -22 9 -14 11 -35 15 -125 2 -35 0 -63 -3 -63 -4
0 -7 -26 -8 -57 -1 -32 -4 -83 -6 -113 -10 -102 -20 -232 -30 -355 -2 -33 -8
-100 -12 -150 -4 -49 -7 -120 -6 -157 1 -38 -2 -68 -6 -68 -4 0 -8 -26 -9 -57
-2 -54 -6 -104 -18 -243 -3 -30 -6 -71 -7 -90 -2 -28 -6 -35 -24 -37 -45 -4
-53 -6 -53 -14 0 -5 -7 -6 -15 -3 -8 4 -15 1 -15 -5 0 -6 -7 -8 -15 -5 -8 4
-15 1 -15 -6 0 -7 -7 -10 -15 -6 -8 3 -15 1 -15 -5 0 -6 -4 -7 -10 -4 -5 3
-10 1 -10 -5 0 -6 -4 -8 -10 -5 -5 3 -10 1 -10 -5 0 -6 -4 -8 -10 -5 -5 3 -10
1 -10 -5 0 -6 -4 -8 -10 -5 -5 3 -10 1 -10 -5 0 -6 -4 -9 -9 -5 -6 3 -14 -3
-20 -12 -6 -10 -11 -13 -11 -8 0 6 -5 3 -10 -5 -5 -8 -13 -15 -17 -16 -11 -1
-115 -104 -105 -104 4 0 -1 -5 -11 -11 -9 -6 -15 -14 -12 -20 4 -5 1 -9 -5 -9
-6 0 -9 -4 -6 -9 4 -5 1 -11 -5 -13 -6 -2 -12 -16 -12 -31 -1 -15 -5 -27 -9
-27 -11 0 -10 23 -14 -640 -2 -327 -6 -600 -8 -607 -3 -7 -12 -10 -20 -7 -8 3
-17 1 -21 -5 -3 -6 -17 -8 -31 -5 -13 3 -24 2 -24 -3 0 -5 -13 -8 -30 -5 -19
3 -30 0 -30 -8 0 -7 -8 -9 -20 -5 -11 3 -25 3 -32 -1 -7 -5 -32 -9 -56 -11
-23 -1 -47 -5 -54 -9 -6 -4 -27 -8 -47 -10 -20 -2 -47 -5 -61 -7 -14 -2 -51
-8 -83 -12 -31 -4 -59 -11 -62 -15 -3 -5 -14 -6 -24 -3 -10 3 -22 0 -25 -5 -3
-6 -15 -8 -26 -5 -11 3 -27 0 -35 -7 -8 -6 -18 -9 -23 -6 -4 2 -26 1 -48 -4
-23 -5 -67 -12 -100 -16 -32 -3 -64 -10 -70 -15 -5 -4 -19 -6 -31 -3 -11 3
-24 1 -27 -4 -3 -6 -15 -8 -25 -5 -10 3 -22 0 -25 -6 -4 -6 -18 -8 -32 -5 -15
4 -24 2 -24 -6 0 -6 -8 -9 -18 -6 -9 3 -53 -1 -97 -10 -44 -9 -90 -16 -102
-15 -12 0 -24 -3 -27 -8 -3 -4 -17 -6 -31 -3 -15 2 -25 0 -25 -7 0 -7 -9 -9
-24 -5 -13 3 -27 1 -30 -5 -4 -5 -13 -8 -21 -4 -8 3 -23 2 -32 -2 -10 -5 -26
-7 -35 -6 -10 1 -18 -3 -18 -9 0 -6 -4 -9 -10 -5 -8 5 -49 0 -160 -21 -24 -4
-80 -11 -80 -10 0 2 -78 385 -155 761 -102 500 -194 951 -237 1165 -17 85 -34
157 -37 160 -3 3 -6 16 -7 30 0 14 -36 196 -78 405 -70 342 -77 388 -73 463 9
146 85 252 209 290 32 10 56 20 54 23 -2 2 47 4 109 5 74 1 112 -3 108 -9 -4
-6 2 -8 15 -5 12 4 22 3 22 -2 0 -4 12 -11 26 -14 34 -9 117 -92 144 -146 25
-48 52 -130 192 -580 55 -179 105 -327 110 -328 4 -2 6 -7 4 -11 -3 -4 26
-105 64 -224 37 -119 71 -231 75 -247 4 -17 10 -30 15 -30 4 0 7 -6 6 -12 -2
-21 47 -178 56 -178 4 0 5 -7 2 -15 -4 -8 -1 -15 5 -15 6 0 8 -7 5 -15 -4 -8
-1 -15 6 -15 6 0 9 -4 6 -8 -7 -11 34 -146 45 -150 5 -2 6 -8 3 -13 -3 -6 0
-16 6 -24 7 -8 10 -15 7 -15 -6 0 37 -144 56 -189 5 -14 9 -32 8 -38 -1 -7 2
-13 6 -13 5 0 9 -8 9 -17 1 -22 65 -226 73 -233 3 -3 6 -9 6 -15 1 -28 28
-115 37 -115 5 0 6 -4 3 -10 -8 -13 31 -100 45 -100 6 0 9 -4 6 -9 -3 -5 2
-15 11 -22 14 -12 16 -12 9 1 -4 8 1 5 11 -8 21 -26 103 -44 103 -23 0 7 5 9
10 6 18 -11 72 37 91 80 16 37 29 120 34 225 1 19 5 43 9 53 5 9 5 24 2 33 -4
9 -1 23 5 30 6 8 9 27 6 44 -4 16 -2 32 4 35 5 4 10 23 10 43 -1 39 1 59 17
182 6 41 11 84 11 95 4 52 9 92 16 108 4 9 4 28 1 41 -3 14 -1 28 5 31 6 4 9
21 8 39 -1 17 1 38 4 46 4 12 32 247 36 310 5 65 9 97 16 113 4 9 4 28 1 41
-3 14 -1 28 5 31 6 4 9 21 8 39 -1 17 1 38 4 46 9 24 47 383 41 392 -3 5 0 15
6 23 7 8 9 26 5 44 -4 17 -2 32 5 36 6 3 11 21 11 38 0 18 2 52 5 77 3 25 8
63 10 85 3 22 6 54 8 70 10 77 18 153 20 185 1 19 5 40 9 47 4 6 7 31 7 55 0
79 3 118 10 118 6 0 35 117 33 138 0 6 3 12 9 12 5 0 6 5 3 10 -3 6 -3 10 2
10 8 0 30 43 34 65 1 6 9 15 18 22 9 7 12 13 7 13 -4 0 0 8 11 18 10 9 13 13
6 8 -25 -17 -13 0 29 39 23 22 36 31 29 20 -7 -11 1 -4 19 15 18 19 29 28 26
20 -6 -12 -5 -11 6 1 7 9 16 16 21 17 27 4 87 26 87 33 0 4 9 5 20 2 11 -3 20
-1 20 3 0 5 38 9 85 9 47 0 85 -4 85 -9z m1935 -15 c-6 -5 -25 10 -25 20 0 5
6 4 14 -3 8 -7 12 -15 11 -17z m20 -45 c0 -21 -3 -23 -20 -13 -12 6 -15 12 -8
14 7 3 9 11 6 19 -3 9 0 12 8 9 8 -3 14 -16 14 -29z m-222 -11 c-3 -9 -8 -14
-10 -11 -3 3 -2 9 2 15 9 16 15 13 8 -4z m-1528 -25 c10 -11 16 -20 13 -20 -3
0 -13 9 -23 20 -10 11 -16 20 -13 20 3 0 13 -9 23 -20z m1775 -15 c-9 -11 -6
-12 12 -8 13 4 20 2 15 -3 -5 -5 -14 -9 -20 -9 -13 0 -17 -45 -5 -67 6 -13 5
-18 -4 -19 -7 0 -20 -2 -28 -4 -11 -2 -16 5 -16 21 0 16 5 23 13 20 7 -3 13
-1 13 3 0 5 -6 12 -12 14 -9 4 -7 6 3 6 19 1 21 31 2 31 -7 0 -13 6 -13 14 0
8 10 14 25 14 20 0 23 -3 15 -13z m-45 -151 c-19 -14 -19 -15 2 -20 13 -4 20
-11 16 -20 -3 -8 -1 -14 5 -14 5 0 13 -8 16 -17 6 -15 5 -15 -11 -2 -10 8 -28
14 -40 13 -12 0 -20 3 -17 8 3 4 9 6 14 3 16 -10 20 13 5 25 -14 11 -14 15 1
31 10 11 20 16 23 13 3 -3 -3 -12 -14 -20z m-192 -69 c-3 -9 -8 -14 -10 -11
-3 3 -2 9 2 15 9 16 15 13 8 -4z m183 -14 c-19 -7 -18 -8 3 -23 14 -10 18 -18
12 -23 -6 -3 -11 -1 -11 6 0 7 -3 9 -7 6 -3 -4 -12 1 -19 11 -13 18 -2 32 26
31 10 0 9 -3 -4 -8z m-191 -21 c3 -6 -1 -7 -9 -4 -18 7 -21 14 -7 14 6 0 13
-4 16 -10z m-28 -112 c-3 -8 -6 -5 -6 6 -1 11 2 17 5 13 3 -3 4 -12 1 -19z
m233 -14 c0 -8 -4 -12 -10 -9 -5 3 -10 10 -10 16 0 5 5 9 10 9 6 0 10 -7 10
-16z m-10 -98 c14 -18 14 -18 -7 -6 -12 8 -19 18 -16 23 3 4 6 7 7 5 1 -2 8
-12 16 -22z m-195 -6 c3 -6 -1 -7 -9 -4 -18 7 -21 14 -7 14 6 0 13 -4 16 -10z
m199 -29 c3 -4 -4 -7 -14 -7 -11 0 -22 6 -24 12 -5 12 31 8 38 -5z m-207 -8
c0 -8 -4 -10 -12 -3 -7 5 -16 6 -20 2 -5 -4 -5 -2 -2 4 9 15 34 13 34 -3z
m203 -25 c-1 -16 -30 -56 -30 -41 0 7 5 15 11 18 6 4 8 13 5 21 -3 8 -1 14 4
14 6 0 10 -6 10 -12z m10 -177 c0 -5 -7 -11 -14 -14 -10 -4 -13 -1 -9 9 6 15
23 19 23 5z m30 5 c0 -3 -4 -8 -10 -11 -5 -3 -10 -1 -10 4 0 6 5 11 10 11 6 0
10 -2 10 -4z m-70 -30 c0 -3 -4 -8 -10 -11 -5 -3 -10 -1 -10 4 0 6 5 11 10 11
6 0 10 -2 10 -4z m33 -32 c-7 -19 -10 -18 -16 5 -3 13 -1 18 9 14 7 -2 10 -11
7 -19z m63 -29 c9 -7 9 -14 2 -23 -6 -7 -8 -15 -5 -19 4 -3 -5 -14 -18 -25
-14 -11 -25 -26 -25 -34 0 -16 -16 -19 -25 -4 -3 6 0 10 7 10 10 0 9 3 -2 11
-13 9 -13 10 2 6 20 -7 43 17 32 34 -4 7 -3 9 4 6 14 -9 3 35 -12 46 -7 5 -3
7 9 5 11 -2 25 -7 31 -13z m-43 -30 c-3 -9 -8 -14 -10 -11 -3 3 -2 9 2 15 9
16 15 13 8 -4z m-23 -29 c0 -2 -7 -7 -16 -10 -8 -3 -12 -2 -9 4 6 10 25 14 25
6z m42 -78 c-6 -6 -8 -17 -5 -24 8 -22 -12 -16 -35 11 -12 13 -17 27 -12 30 6
4 10 2 10 -4 0 -17 30 0 30 18 1 14 2 13 11 -2 8 -13 8 -22 1 -29z m-32 -32
c0 -3 -4 -8 -10 -11 -5 -3 -10 -1 -10 4 0 6 5 11 10 11 6 0 10 -2 10 -4z m50
-19 c-14 -6 -28 -16 -32 -22 -5 -6 -8 -3 -8 7 0 16 18 25 50 26 8 0 4 -5 -10
-11z m-60 -13 c0 -8 -19 -13 -24 -6 -3 5 1 9 9 9 8 0 15 -2 15 -3z m24 -46 c6
-4 14 -2 18 5 6 9 8 9 8 -1 0 -19 -22 -37 -47 -38 -19 -1 -21 2 -13 17 6 10
10 22 9 26 -3 18 3 27 8 13 3 -8 11 -18 17 -22z m-209 -98 c3 -5 1 -10 -4 -10
-6 0 -11 5 -11 10 0 6 2 10 4 10 3 0 8 -4 11 -10z m12 -155 c0 -8 -4 -12 -9
-9 -5 3 -6 10 -3 15 9 13 12 11 12 -6z m193 -34 c0 -7 -8 -3 -19 10 -11 13
-17 28 -14 32 6 10 32 -23 33 -42z m-223 -8 c-4 -3 -1 -13 6 -22 11 -14 10
-14 -5 -2 -16 12 -16 31 -1 31 4 0 3 -3 0 -7z m49 -5 c4 -7 3 -8 -4 -4 -7 4
-12 2 -12 -5 0 -7 -3 -10 -6 -6 -6 5 3 27 11 27 2 0 7 -5 11 -12z m232 -5 c-1
-10 2 -25 6 -33 7 -11 3 -10 -11 3 -11 9 -26 17 -34 17 -10 1 -8 5 5 15 26 20
38 19 34 -2z m-78 -7 c0 -2 -7 -7 -16 -10 -8 -3 -12 -2 -9 4 6 10 25 14 25 6z
m-217 -41 c-3 -9 -8 -14 -10 -11 -3 3 -2 9 2 15 9 16 15 13 8 -4z m257 -10 c0
-9 -6 -12 -15 -9 -8 4 -15 1 -15 -6 0 -6 -4 -9 -10 -5 -5 3 -7 12 -3 20 7 19
43 19 43 0z m-60 -14 c0 -6 -4 -12 -8 -15 -5 -3 -9 1 -9 9 0 8 4 15 9 15 4 0
8 -4 8 -9z m15 -61 c3 -5 1 -10 -4 -10 -6 0 -11 5 -11 10 0 6 2 10 4 10 3 0 8
-4 11 -10z m-155 -30 c0 -5 -2 -10 -4 -10 -3 0 -8 5 -11 10 -3 6 -1 10 4 10 6
0 11 -4 11 -10z m-16 -56 c3 -8 2 -12 -4 -9 -6 3 -10 10 -10 16 0 14 7 11 14
-7z m160 -13 c3 -5 0 -11 -7 -14 -8 -3 -14 1 -14 9 0 16 13 19 21 5z m23 -43
c-3 -8 -6 -5 -6 6 -1 11 2 17 5 13 3 -3 4 -12 1 -19z m70 -7 c1 -11 -5 -18
-15 -17 -11 1 -17 -8 -18 -27 -2 -15 1 -25 5 -23 5 3 8 -8 7 -24 -1 -17 -4
-30 -8 -30 -4 0 -12 -9 -17 -19 -8 -14 -7 -22 7 -32 15 -13 16 -12 3 4 -8 10
-9 17 -3 17 33 0 23 -40 -14 -57 -25 -12 -26 -11 -10 6 17 18 12 31 -11 31 -8
0 -11 -5 -7 -12 5 -7 3 -8 -6 -3 -10 6 -10 11 3 20 19 14 23 30 5 19 -7 -4 -8
-3 -4 5 4 6 11 9 16 6 14 -9 23 16 11 28 -14 14 -15 30 -1 22 7 -4 9 5 5 25
-4 24 0 36 19 55 30 30 31 30 33 6z m-100 -23 c-3 -8 -6 -5 -6 6 -1 11 2 17 5
13 3 -3 4 -12 1 -19z m37 -27 c3 -5 -2 -15 -12 -22 -15 -13 -16 -12 -4 3 10
13 10 17 0 21 -9 4 -9 6 -1 6 6 1 14 -3 17 -8z m-34 -19 c0 -5 -7 -9 -15 -9
-8 0 -12 4 -9 9 3 4 9 8 15 8 5 0 9 -4 9 -8z m-15 -112 c3 -5 1 -10 -4 -10 -6
0 -11 5 -11 10 0 6 2 10 4 10 3 0 8 -4 11 -10z m23 -61 c-3 -8 -7 -3 -11 10
-4 17 -3 21 5 13 5 -5 8 -16 6 -23z m-1419 -103 c5 -3 16 -3 25 0 9 3 16 1 16
-6 0 -6 4 -9 9 -6 5 4 11 2 13 -3 1 -5 12 -11 23 -13 11 -1 23 -7 27 -13 4 -5
11 -10 15 -11 4 0 28 -20 53 -44 25 -24 38 -41 30 -36 -11 6 -11 4 1 -6 16
-13 19 -19 19 -39 0 -5 4 -7 10 -4 6 4 7 -1 3 -11 -5 -13 -3 -15 7 -9 10 6 12
4 7 -8 -3 -10 -2 -17 2 -17 5 0 7 -9 4 -20 -3 -11 -1 -20 3 -20 5 0 9 -371 9
-835 0 -696 -2 -835 -14 -835 -8 0 -11 6 -7 15 3 8 1 15 -5 15 -6 0 -9 7 -5
15 3 8 1 15 -5 15 -6 0 -8 4 -5 9 9 14 -5 42 -17 34 -6 -4 -8 0 -4 10 3 10 2
17 -4 17 -6 0 -7 5 -4 10 3 6 1 10 -6 10 -7 0 -9 3 -6 7 4 3 0 11 -8 17 -7 6
-15 18 -17 26 -2 8 -10 21 -18 28 -13 12 -13 13 0 7 8 -4 6 1 -4 9 -11 9 -16
16 -10 16 5 1 -1 9 -14 20 -13 10 -24 23 -25 27 -1 4 -6 7 -10 5 -5 -1 -6 2
-3 7 4 5 -5 18 -20 28 -14 10 -41 32 -58 48 -31 29 -31 29 -1 5 28 -24 28 -23
-4 12 -19 21 -37 36 -39 33 -2 -2 -13 6 -24 18 -11 12 -16 15 -12 7 4 -8 -5
-2 -19 13 -15 15 -32 25 -37 22 -6 -3 -10 -1 -10 5 0 6 -4 8 -10 5 -5 -3 -10
-1 -10 6 0 7 -3 10 -6 6 -4 -3 -13 1 -21 9 -8 8 -19 12 -24 9 -5 -4 -9 -1 -9
5 0 7 -7 10 -15 6 -8 -3 -15 -1 -15 5 0 6 -7 8 -16 5 -8 -3 -12 -2 -9 4 3 6
-4 11 -17 12 -13 1 -30 2 -38 3 -8 0 -20 3 -25 6 -6 3 -32 6 -59 7 -27 1 -51
3 -53 6 -2 2 -4 228 -4 502 0 472 4 558 30 625 5 15 7 30 4 33 -4 3 -1 6 6 6
7 0 10 4 6 9 -3 6 4 15 15 21 12 6 25 22 30 36 6 14 14 23 19 20 5 -3 15 2 22
11 12 14 12 16 0 8 -9 -5 -12 -4 -7 3 4 6 13 9 21 6 8 -4 17 1 21 9 3 9 11 14
19 11 7 -3 19 1 26 9 8 7 19 12 26 10 6 -2 14 0 17 6 4 6 13 8 20 5 8 -3 16
-2 19 3 6 9 161 8 176 -1z m1423 -7 c-12 -5 -22 -14 -22 -20 0 -7 -3 -9 -7 -6
-9 10 28 48 40 40 6 -3 1 -10 -11 -14z m-6 -64 c1 -8 -4 -15 -11 -15 -8 0 -11
7 -8 20 6 22 15 19 19 -5z m-1225 -22 c13 -16 12 -17 -3 -4 -10 7 -18 15 -18
17 0 8 8 3 21 -13z m980 -106 c-10 -9 -11 -8 -5 6 3 10 9 15 12 12 3 -3 0 -11
-7 -18z m-149 -101 c-3 -5 5 -7 16 -4 12 4 22 2 22 -4 0 -6 7 -8 15 -4 8 3 15
2 15 -2 0 -5 15 -16 34 -24 26 -13 36 -14 45 -5 9 9 11 8 6 -4 -4 -10 9 -29
39 -57 24 -23 55 -64 67 -91 13 -27 27 -47 32 -44 4 2 5 -7 1 -21 -3 -14 -2
-26 2 -26 5 0 9 -306 9 -680 0 -377 -4 -680 -9 -680 -4 0 -6 -9 -3 -20 3 -10
2 -20 -2 -22 -14 -7 -45 -85 -43 -108 2 -20 0 -22 -8 -10 -8 13 -17 8 -50 -27
-23 -24 -45 -43 -51 -43 -6 0 -8 -4 -5 -8 3 -5 -17 -14 -44 -21 -28 -7 -50
-17 -50 -23 0 -5 -9 -6 -20 -3 -11 3 -20 3 -20 -2 0 -4 -32 -8 -70 -9 -39 0
-70 4 -70 9 0 4 -5 5 -10 2 -6 -4 -16 -2 -23 3 -7 6 -15 11 -20 11 -4 0 -21 8
-37 16 -17 9 -30 13 -30 10 0 -15 -118 114 -137 150 -50 94 -53 132 -53 774 0
552 1 604 19 674 19 75 41 125 74 161 9 11 17 23 17 26 0 6 99 74 110 75 20 3
50 18 50 26 0 6 9 7 20 4 11 -3 20 -3 20 2 0 4 33 8 74 8 42 0 72 -4 68 -9z
m423 -25 c3 -5 0 -13 -6 -17 -7 -4 -9 -3 -5 4 3 5 0 13 -6 15 -9 4 -10 6 -1 6
6 1 14 -3 18 -8z m35 -33 c0 -4 -4 -8 -9 -8 -6 0 -12 4 -15 8 -3 5 1 9 9 9 8
0 15 -4 15 -9z m-260 -33 c13 -14 21 -25 18 -25 -2 0 -15 11 -28 25 -13 14
-21 25 -18 25 2 0 15 -11 28 -25z m200 -85 c0 -5 -5 -10 -11 -10 -5 0 -7 5 -4
10 3 6 8 10 11 10 2 0 4 -4 4 -10z m24 -5 c3 -8 1 -15 -4 -15 -6 0 -10 7 -10
15 0 8 2 15 4 15 2 0 6 -7 10 -15z m11 -34 c3 -5 1 -12 -4 -15 -5 -4 -12 -2
-16 4 -4 6 -11 7 -17 4 -7 -4 -8 -2 -4 4 9 14 33 16 41 3z m-26 -64 c0 -8 -2
-8 -6 1 -4 10 -8 10 -21 0 -15 -12 -16 -11 -3 4 14 19 32 15 30 -5z m18 -137
c8 -19 4 -52 -7 -64 -5 -5 -16 -2 -25 8 -9 9 -11 16 -5 16 6 0 8 5 5 10 -3 6
-1 10 5 10 7 0 10 -7 6 -17 -5 -15 -3 -15 9 1 10 13 12 23 5 30 -5 5 -10 19
-9 31 0 13 2 15 6 5 2 -8 7 -22 10 -30z m43 19 c0 -13 -28 -18 -33 -6 -3 7 3
13 14 13 11 0 19 -3 19 -7z m-83 -174 c0 -8 -4 -12 -9 -9 -4 3 -8 9 -8 15 0 5
4 9 8 9 5 0 9 -7 9 -15z m3 -29 c0 -3 -4 -8 -10 -11 -5 -3 -10 -1 -10 4 0 6 5
11 10 11 6 0 10 -2 10 -4z m-15 -207 c-4 -5 -1 -9 5 -9 6 0 8 -5 5 -11 -9 -13
-15 -7 -20 20 -2 12 0 19 6 16 5 -4 7 -11 4 -16z m25 -33 c0 -2 -8 -10 -17
-17 -16 -13 -17 -12 -4 4 13 16 21 21 21 13z m85 -26 c3 -5 1 -10 -4 -10 -6 0
-11 5 -11 10 0 6 2 10 4 10 3 0 8 -4 11 -10z m-15 -24 c0 -3 -4 -8 -10 -11 -5
-3 -10 -1 -10 4 0 6 5 11 10 11 6 0 10 -2 10 -4z m-61 -39 c0 -9 -2 -8 -6 1
-2 6 -10 9 -15 6 -7 -4 -8 -2 -4 5 9 13 26 5 25 -12z m-5 -163 c3 -8 2 -12 -4
-9 -6 3 -10 10 -10 16 0 14 7 11 14 -7z m13 -69 c0 -8 -4 -12 -9 -9 -5 3 -6
10 -3 15 9 13 12 11 12 -6z m10 -80 c0 -8 -4 -15 -9 -15 -4 0 -8 7 -8 15 0 8
4 15 8 15 5 0 9 -7 9 -15z m8 -115 c1 -15 -1 -17 -12 -9 -13 11 -18 1 -14 -24
1 -5 -3 -6 -8 -3 -12 8 -8 30 8 50 16 19 24 14 26 -14z m-46 -113 c-2 -1 -13
-9 -24 -17 -19 -14 -19 -14 -6 3 7 9 18 17 24 17 6 0 8 -1 6 -3z m76 -37 c3
-5 -1 -10 -9 -10 -9 0 -16 5 -16 10 0 6 4 10 9 10 6 0 13 -4 16 -10z m-73
-110 c-1 -7 1 -17 5 -24 4 -7 0 -3 -9 7 -21 22 -24 41 -5 34 6 -2 11 -10 9
-17z m13 -70 c3 -5 1 -10 -4 -10 -6 0 -11 5 -11 10 0 6 2 10 4 10 3 0 8 -4 11
-10z m15 -41 c0 -5 -8 -9 -17 -8 -11 0 -13 3 -5 6 6 2 9 10 6 15 -4 7 -2 8 4
4 7 -4 12 -11 12 -17z m-20 -23 c0 -2 -7 -7 -16 -10 -8 -3 -12 -2 -9 4 6 10
25 14 25 6z m27 -38 c-3 -7 -5 -2 -5 12 0 14 2 19 5 13 2 -7 2 -19 0 -25z m50
-20 c-20 -13 -33 -9 -33 10 0 15 4 16 22 8 15 -7 19 -13 11 -18z m-243 -53 c3
-8 1 -15 -4 -15 -6 0 -10 7 -10 15 0 8 2 15 4 15 2 0 6 -7 10 -15z m181 5 c3
-6 -1 -7 -9 -4 -18 7 -21 14 -7 14 6 0 13 -4 16 -10z m-205 -4 c0 -2 -7 -7
-16 -10 -8 -3 -12 -2 -9 4 6 10 25 14 25 6z m195 -46 c3 -5 2 -10 -4 -10 -5 0
-13 5 -16 10 -3 6 -2 10 4 10 5 0 13 -4 16 -10z m-165 -30 c-6 -11 -13 -20
-16 -20 -2 0 0 9 6 20 6 11 13 20 16 20 2 0 0 -9 -6 -20z m-57 -5 c-3 -9 -8
-14 -10 -11 -3 3 -2 9 2 15 9 16 15 13 8 -4z m237 -55 c0 -5 -5 -10 -11 -10
-5 0 -7 5 -4 10 3 6 8 10 11 10 2 0 4 -4 4 -10z m-35 -19 c3 -5 2 -12 -3 -15
-5 -3 -9 1 -9 9 0 17 3 19 12 6z m20 -2551 c3 -5 1 -10 -4 -10 -6 0 -11 5 -11
10 0 6 2 10 4 10 3 0 8 -4 11 -10z m-29 -155 c-1 -8 -5 -17 -8 -21 -5 -4 -4
16 1 34 3 9 9 -1 7 -13z m79 -5 c3 -5 1 -10 -4 -10 -6 0 -11 5 -11 10 0 6 2
10 4 10 3 0 8 -4 11 -10z m-50 -19 c-3 -6 -11 -11 -16 -11 -5 0 -4 6 3 14 14
16 24 13 13 -3z m62 -17 c2 -6 -9 -9 -24 -8 -35 2 -35 2 -28 14 7 12 48 7 52
-6z m-27 -45 c0 -5 -7 -9 -15 -9 -9 0 -12 6 -9 15 6 15 24 11 24 -6z m-11
-263 c-2 -19 -2 -19 -6 2 -2 12 -8 22 -12 22 -4 0 -8 7 -8 16 0 14 2 14 14 -2
7 -10 12 -27 12 -38z m-21 -46 c-7 -10 -14 -17 -17 -15 -4 4 18 35 25 35 2 0
-1 -9 -8 -20z m43 -14 c5 3 9 -2 9 -10 0 -13 -3 -14 -19 -4 -11 7 -17 17 -14
22 4 6 8 5 11 -2 2 -7 8 -10 13 -6z m-217 -5 c3 -5 0 -11 -7 -14 -8 -3 -14 1
-14 9 0 16 13 19 21 5z m201 -21 c3 -5 -2 -10 -12 -10 -15 0 -16 -2 -3 -10 17
-11 10 -13 -14 -4 -12 5 -13 9 -3 20 14 16 24 17 32 4z m25 -45 c-7 -9 -15
-13 -17 -11 -7 7 7 26 19 26 6 0 6 -6 -2 -15z m-43 -16 c-13 -8 -15 -14 -7
-30 6 -10 8 -19 5 -19 -15 0 -20 3 -17 12 1 6 -3 18 -10 27 -7 9 -9 13 -4 9 5
-4 15 0 23 8 9 8 18 12 22 9 3 -4 -2 -11 -12 -16z m-12 -89 c3 -5 1 -10 -4
-10 -6 0 -11 5 -11 10 0 6 2 10 4 10 3 0 8 -4 11 -10z m15 -41 c0 -5 -8 -9
-17 -8 -11 0 -13 3 -5 6 6 2 9 10 6 15 -4 7 -2 8 4 4 7 -4 12 -11 12 -17z
m-20 -23 c0 -2 -7 -7 -16 -10 -8 -3 -12 -2 -9 4 6 10 25 14 25 6z m27 -38 c-3
-7 -5 -2 -5 12 0 14 2 19 5 13 2 -7 2 -19 0 -25z m50 -20 c-20 -13 -33 -9 -33
10 0 15 4 16 22 8 15 -7 19 -13 11 -18z m-264 -52 c4 -10 0 -12 -14 -9 -10 3
-16 9 -13 14 8 13 21 11 27 -5z m202 4 c3 -6 -1 -7 -9 -4 -18 7 -21 14 -7 14
6 0 13 -4 16 -10z m-10 -50 c3 -5 2 -10 -4 -10 -5 0 -13 5 -16 10 -3 6 -2 10
4 10 5 0 13 -4 16 -10z"/>
<path d="M6510 6839 c0 -5 5 -7 10 -4 6 3 10 8 10 11 0 2 -4 4 -10 4 -5 0 -10
-5 -10 -11z"/>
<path d="M6587 8584 c-7 -8 3 -34 13 -34 4 0 10 7 13 14 4 11 1 13 -10 9 -11
-4 -14 -2 -9 5 8 13 3 16 -7 6z"/>
<path d="M6620 8524 c0 -8 5 -12 10 -9 6 4 8 11 5 16 -9 14 -15 11 -15 -7z"/>
<path d="M6611 8337 c-8 -10 -7 -14 2 -14 8 0 14 6 14 14 0 7 -1 13 -2 13 -2
0 -8 -6 -14 -13z"/>
<path d="M6570 8321 c0 -10 19 -25 25 -20 1 2 -3 10 -11 17 -8 7 -14 8 -14 3z"/>
<path d="M6620 8225 c-7 -8 -19 -15 -26 -15 -8 0 -14 -4 -14 -9 0 -11 28 -41
38 -41 3 0 1 5 -6 12 -19 19 -14 32 6 17 14 -11 15 -11 5 1 -10 11 -9 17 4 32
9 10 14 18 11 18 -3 0 -11 -7 -18 -15z"/>
<path d="M6621 8141 c-7 -5 -12 -14 -10 -20 2 -6 10 -2 17 9 14 22 13 23 -7
11z"/>
<path d="M6573 8133 c-10 -3 -9 -8 2 -20 15 -15 11 -38 -5 -28 -5 3 -8 -4 -7
-15 1 -10 7 -22 13 -24 7 -3 10 3 7 15 -4 13 0 19 12 19 14 0 15 3 6 14 -6 7
-9 21 -5 30 6 16 0 19 -23 9z"/>
<path d="M6615 8031 c-3 -5 -2 -12 3 -15 5 -3 9 1 9 9 0 17 -3 19 -12 6z"/>
<path d="M6595 7960 c3 -5 8 -10 11 -10 2 0 4 5 4 10 0 6 -5 10 -11 10 -5 0
-7 -4 -4 -10z"/>
<path d="M6580 7866 c0 -2 7 -7 16 -10 8 -3 12 -2 9 4 -6 10 -25 14 -25 6z"/>
<path d="M6608 7834 c-18 -35 -7 -59 12 -24 6 11 8 20 4 20 -3 0 -1 6 5 14 7
8 8 16 4 19 -4 3 -16 -10 -25 -29z"/>
<path d="M6630 7799 c0 -5 5 -7 10 -4 6 3 10 8 10 11 0 2 -4 4 -10 4 -5 0 -10
-5 -10 -11z"/>
<path d="M6560 7650 c0 -11 4 -20 10 -20 5 0 6 7 3 17 -5 12 -3 14 7 8 9 -5
11 -4 6 3 -11 19 -26 14 -26 -8z"/>
<path d="M6632 7640 c0 -14 2 -19 5 -12 2 6 2 18 0 25 -3 6 -5 1 -5 -13z"/>
<path d="M6600 7585 c-11 -13 -10 -14 4 -9 9 3 16 10 16 15 0 13 -6 11 -20 -6z"/>
<path d="M6547 7564 c-12 -13 3 -21 29 -16 19 3 22 7 12 13 -16 10 -32 11 -41
3z"/>
<path d="M6597 7529 c7 -7 15 -10 18 -7 3 3 -2 9 -12 12 -14 6 -15 5 -6 -5z"/>
<path d="M6588 7403 c7 -3 16 -2 19 1 4 3 -2 6 -13 5 -11 0 -14 -3 -6 -6z"/>
<path d="M6620 7400 c0 -6 7 -10 15 -10 8 0 15 2 15 4 0 2 -7 6 -15 10 -8 3
-15 1 -15 -4z"/>
<path d="M6578 7353 c7 -3 16 -2 19 1 4 3 -2 6 -13 5 -11 0 -14 -3 -6 -6z"/>
<path d="M6610 7346 c0 -2 7 -7 16 -10 8 -3 12 -2 9 4 -6 10 -25 14 -25 6z"/>
<path d="M6545 7289 c7 -20 5 -22 -6 -12 -11 9 -14 5 -16 -25 -1 -26 1 -32 7
-22 7 11 10 12 10 2 0 -7 5 -10 10 -7 14 8 13 72 -1 81 -8 4 -9 -1 -4 -17z"/>
<path d="M6600 7284 c0 -8 5 -12 10 -9 6 3 10 10 10 16 0 5 -4 9 -10 9 -5 0
-10 -7 -10 -16z"/>
<path d="M6573 7255 c0 -8 4 -12 9 -9 4 3 8 9 8 15 0 5 -4 9 -8 9 -5 0 -9 -7
-9 -15z"/>
<path d="M6607 7172 c5 -11 3 -13 -7 -7 -9 6 -11 4 -5 -5 6 -10 11 -10 20 3 7
9 14 16 16 14 2 -1 3 0 1 2 -1 3 -9 6 -17 7 -9 1 -11 -4 -8 -14z"/>
<path d="M6600 7120 c8 -5 22 -9 30 -9 10 0 8 3 -5 9 -27 12 -43 12 -25 0z"/>
<path d="M6614 6959 c-3 -6 -1 -16 4 -21 8 -8 11 -5 9 11 -1 24 -3 25 -13 10z"/>
<path d="M6616 6898 c3 -5 10 -6 15 -3 13 9 11 12 -6 12 -8 0 -12 -4 -9 -9z"/>
<path d="M6594 6802 c4 -7 3 -12 -2 -12 -16 0 -9 -27 10 -39 11 -7 18 -7 18
-1 0 5 -5 10 -11 10 -6 0 -8 8 -4 19 3 11 0 23 -6 27 -8 4 -9 3 -5 -4z"/>
<path d="M6612 6701 c5 -16 35 -24 43 -11 3 5 -3 7 -12 6 -10 -2 -22 2 -26 8
-6 7 -7 6 -5 -3z"/>
<path d="M6515 6690 c-3 -5 -1 -10 4 -10 6 0 11 5 11 10 0 6 -2 10 -4 10 -3 0
-8 -4 -11 -10z"/>
<path d="M6584 6676 c1 -8 5 -18 8 -22 4 -3 5 1 4 10 -1 8 -5 18 -8 22 -4 3
-5 -1 -4 -10z"/>
<path d="M6564 6439 c0 -16 3 -29 7 -29 3 0 7 11 7 25 0 14 -4 27 -7 30 -4 2
-7 -9 -7 -26z"/>
<path d="M6593 6453 c0 -11 7 -20 14 -20 10 0 10 4 1 16 -7 9 -13 18 -15 20
-1 2 -1 -5 0 -16z"/>
<path d="M6619 6383 c-13 -16 -12 -17 4 -4 9 7 17 15 17 17 0 8 -8 3 -21 -13z"/>
<path d="M6603 6165 c0 -8 4 -15 9 -15 4 0 8 4 8 9 0 6 -4 12 -8 15 -5 3 -9
-1 -9 -9z"/>
<path d="M6561 6033 c-2 -21 11 -43 22 -36 6 3 7 1 3 -6 -5 -8 -12 -9 -20 -2
-7 6 -17 6 -26 1 -10 -6 -11 -10 -3 -10 7 0 10 -7 7 -15 -4 -9 0 -15 7 -15 12
0 12 -2 0 -9 -8 -5 -9 -11 -3 -15 14 -8 25 11 18 29 -3 9 1 15 9 15 18 0 28
-17 15 -25 -13 -8 -13 -25 0 -25 6 0 10 8 10 17 0 9 3 14 6 10 9 -9 -6 -48
-17 -42 -5 4 -9 1 -9 -4 0 -6 5 -11 12 -11 6 0 3 -9 -7 -20 -10 -11 -13 -20
-7 -20 6 0 13 6 15 13 3 6 6 3 6 -7 2 -39 14 -5 17 46 2 33 -1 55 -9 60 -15 9
-16 60 -2 70 6 5 2 8 -9 8 -12 0 -16 -5 -12 -15 3 -8 1 -15 -4 -15 -5 0 -11 8
-13 18 -3 9 -5 12 -6 5z"/>
<path d="M6620 5985 c-7 -9 -8 -15 -2 -15 5 0 12 7 16 15 3 8 4 15 2 15 -2 0
-9 -7 -16 -15z"/>
<path d="M6625 5830 c-3 -5 -1 -10 4 -10 6 0 11 5 11 10 0 6 -2 10 -4 10 -3 0
-8 -4 -11 -10z"/>
<path d="M6563 5813 c-8 -3 -9 -12 -3 -28 5 -12 6 -25 3 -28 -3 -3 3 -5 14 -4
15 1 18 7 15 29 -5 31 -11 38 -29 31z"/>
<path d="M6594 5523 c4 -8 2 -13 -6 -13 -8 0 -14 -9 -15 -19 -2 -19 -1 -19 19
1 16 16 17 22 8 32 -10 8 -11 8 -6 -1z"/>
<path d="M6620 5496 c0 -2 8 -10 18 -17 15 -13 16 -12 3 4 -13 16 -21 21 -21
13z"/>
<path d="M6591 5487 c2 -1 13 -9 24 -17 19 -14 19 -14 6 3 -7 9 -18 17 -24 17
-6 0 -8 -1 -6 -3z"/>
<path d="M6601 5363 c-1 -17 16 -25 25 -12 4 7 3 9 -4 5 -5 -3 -13 0 -15 6 -4
9 -6 10 -6 1z"/>
<path d="M6541 5314 c0 -11 3 -14 6 -6 3 7 2 16 -1 19 -3 4 -6 -2 -5 -13z"/>
<path d="M6630 5279 c0 -5 5 -7 10 -4 6 3 10 8 10 11 0 2 -4 4 -10 4 -5 0 -10
-5 -10 -11z"/>
<path d="M6615 5240 c-3 -6 1 -7 9 -4 18 7 21 14 7 14 -6 0 -13 -4 -16 -10z"/>
<path d="M6593 5223 c4 -6 3 -14 -3 -18 -5 -3 -10 -12 -10 -18 0 -7 5 -4 11 5
6 11 16 15 27 11 18 -7 17 -5 -12 17 -11 8 -17 10 -13 3z"/>
<path d="M6596 5172 c-2 -4 -1 -14 5 -22 7 -12 9 -10 9 8 0 23 -5 28 -14 14z"/>
<path d="M6565 5140 c3 -5 -3 -10 -15 -10 -12 0 -18 -5 -15 -10 4 -7 12 -7 25
0 29 15 35 12 16 -9 -16 -18 -16 -19 7 -23 15 -3 24 0 24 8 0 7 -5 10 -10 7
-6 -4 -8 0 -4 9 3 9 0 21 -6 27 -14 14 -30 15 -22 1z"/>
<path d="M6544 5053 c4 -4 19 -9 34 -11 35 -4 25 5 -12 12 -16 3 -25 2 -22 -1z"/>
<path d="M6595 5005 c0 -13 3 -21 8 -18 4 2 7 10 7 18 0 8 -3 16 -7 18 -5 3
-8 -5 -8 -18z"/>
<path d="M6550 5016 c0 -2 7 -6 15 -10 8 -3 15 -1 15 4 0 6 -7 10 -15 10 -8 0
-15 -2 -15 -4z"/>
<path d="M6546 4981 c-4 -5 -2 -12 3 -15 5 -4 12 -2 15 3 4 5 2 12 -3 15 -5 4
-12 2 -15 -3z"/>
<path d="M6581 4861 c-18 -12 2 -23 25 -14 12 4 15 3 10 -5 -4 -7 -2 -12 3
-12 17 0 13 18 -7 29 -10 5 -24 6 -31 2z"/>
<path d="M6641 4834 c0 -11 3 -14 6 -6 3 7 2 16 -1 19 -3 4 -6 -2 -5 -13z"/>
<path d="M6595 4820 c3 -5 14 -10 23 -10 15 0 15 2 2 10 -20 13 -33 13 -25 0z"/>
<path d="M6610 4660 c-9 -6 -10 -10 -3 -10 6 0 15 5 18 10 8 12 4 12 -15 0z"/>
<path d="M6551 4627 c-8 -11 -6 -18 9 -32 11 -10 23 -15 27 -12 3 4 1 7 -6 7
-7 0 -9 5 -6 10 4 6 11 8 16 5 14 -9 11 5 -5 21 -18 17 -21 17 -35 1z"/>
<path d="M6610 4595 c-7 -9 -11 -17 -9 -20 3 -2 10 5 17 15 14 24 10 26 -8 5z"/>
<path d="M6553 4555 c0 -17 25 -20 47 -4 12 8 10 9 -7 4 -14 -4 -23 -2 -23 4
0 6 -4 11 -8 11 -5 0 -9 -7 -9 -15z"/>
<path d="M6564 4503 c3 -4 18 -8 32 -9 14 -2 24 0 20 3 -3 3 -17 7 -32 9 -14
1 -23 0 -20 -3z"/>
<path d="M6584 4472 c4 -7 -4 -14 -19 -18 -26 -6 -32 -18 -15 -29 6 -3 10 -1
10 5 0 6 5 8 11 4 8 -4 8 -9 0 -17 -14 -14 -14 -27 0 -27 5 0 7 5 4 10 -3 6
-2 10 4 10 5 0 11 -5 13 -12 2 -6 13 -12 24 -14 18 -3 18 -2 -1 12 -11 8 -19
22 -17 31 2 8 -1 12 -7 9 -5 -4 -12 -2 -16 4 -6 9 8 15 28 11 14 -3 2 22 -13
27 -7 3 -10 0 -6 -6z"/>
<path d="M6570 4326 c0 -2 8 -10 18 -17 15 -13 16 -12 3 4 -13 16 -21 21 -21
13z"/>
<path d="M6563 4235 c0 -8 7 -15 14 -15 8 0 11 -4 8 -10 -3 -5 -1 -10 4 -10
17 0 13 15 -7 33 -16 15 -19 15 -19 2z"/>
<path d="M6590 4179 c0 -5 5 -7 10 -4 6 3 10 8 10 11 0 2 -4 4 -10 4 -5 0 -10
-5 -10 -11z"/>
<path d="M6551 4163 c0 -11 3 -13 6 -5 2 6 9 10 14 6 5 -3 9 0 9 5 0 6 -7 11
-15 11 -8 0 -15 -8 -14 -17z"/>
<path d="M6610 4015 c0 -5 5 -17 10 -25 5 -8 10 -10 10 -5 0 6 -5 17 -10 25
-5 8 -10 11 -10 5z"/>
<path d="M6610 3960 c0 -5 5 -10 11 -10 5 0 7 5 4 10 -3 6 -8 10 -11 10 -2 0
-4 -4 -4 -10z"/>
<path d="M6600 3932 c0 -5 7 -9 15 -9 8 0 12 4 9 9 -3 4 -9 8 -15 8 -5 0 -9
-4 -9 -8z"/>
<path d="M6670 3864 c0 -14 3 -14 15 -4 8 7 15 14 15 16 0 2 -7 4 -15 4 -8 0
-15 -7 -15 -16z"/>
<path d="M6690 3823 c0 -13 5 -23 10 -23 13 0 13 11 0 30 -8 12 -10 11 -10 -7z"/>
<path d="M6702 3740 c0 -14 2 -19 5 -12 2 6 2 18 0 25 -3 6 -5 1 -5 -13z"/>
<path d="M6580 3698 c0 -4 4 -8 9 -8 6 0 12 4 15 8 3 5 -1 9 -9 9 -8 0 -15 -4
-15 -9z"/>
<path d="M6561 3678 c-1 -20 14 -24 25 -6 4 6 3 8 -4 4 -5 -3 -13 0 -15 6 -3
8 -6 6 -6 -4z"/>
<path d="M6549 3633 c-13 -16 -12 -17 4 -4 16 13 21 21 13 21 -2 0 -10 -8 -17
-17z"/>
<path d="M6702 1790 c0 -19 2 -27 5 -17 2 9 2 25 0 35 -3 9 -5 1 -5 -18z"/>
<path d="M6697 1714 c-4 -4 -7 -14 -7 -23 0 -11 3 -12 11 -4 6 6 10 16 7 23
-2 6 -7 8 -11 4z"/>
<path d="M6680 1635 c0 -8 2 -15 4 -15 2 0 6 7 10 15 3 8 1 15 -4 15 -6 0 -10
-7 -10 -15z"/>
<path d="M6671 1574 c0 -11 3 -14 6 -6 3 7 2 16 -1 19 -3 4 -6 -2 -5 -13z"/>
<path d="M6610 1381 c0 -6 4 -13 10 -16 6 -3 7 1 4 9 -7 18 -14 21 -14 7z"/>
<path d="M6625 1260 c-4 -6 1 -7 11 -3 13 5 15 3 9 -7 -5 -9 -4 -11 4 -6 6 4
9 12 6 17 -8 12 -22 12 -30 -1z"/>
<path d="M6565 1249 c-19 -7 -18 -8 4 -8 20 -1 22 -3 10 -17 -8 -10 -15 -12
-17 -5 -2 6 -8 11 -14 11 -6 0 -5 -7 3 -16 11 -14 10 -15 -7 -12 -11 2 -18 -2
-16 -9 1 -7 -2 -13 -7 -13 -13 0 -7 -40 8 -49 9 -6 11 -14 3 -26 -12 -23 -4
-55 14 -55 17 0 18 17 2 23 -8 4 -7 6 4 6 9 1 19 7 22 14 5 10 7 10 12 0 3 -7
10 -13 16 -13 6 0 4 7 -3 17 -17 20 -13 53 9 71 10 7 12 11 5 7 -19 -9 -54 17
-42 31 6 7 16 11 24 8 7 -3 16 -1 20 5 3 7 0 8 -10 5 -11 -4 -14 -2 -9 9 7 20
-6 27 -31 16z m-15 -70 c0 -5 -4 -9 -8 -9 -5 0 -9 7 -9 15 0 8 4 12 9 9 4 -3
8 -9 8 -15z m27 -44 c-6 -20 -17 -35 -26 -35 -12 0 -12 3 -3 12 16 16 16 41 0
32 -7 -4 -4 2 7 13 27 28 35 20 22 -22z"/>
<path d="M6613 1119 c9 -6 15 -14 12 -20 -4 -5 -1 -9 4 -9 6 0 11 4 11 8 0 12
-22 32 -34 32 -6 0 -3 -5 7 -11z"/>
<path d="M6570 1068 c0 -8 -9 -22 -21 -31 -20 -18 -20 -19 -2 -32 30 -24 51
-19 45 10 -2 14 -9 25 -14 25 -5 0 -6 5 -3 11 4 6 13 8 21 5 7 -3 16 0 20 7 4
7 4 9 -1 5 -4 -4 -16 -3 -26 3 -14 7 -19 6 -19 -3z m-3 -47 c0 -11 -5 -18 -9
-15 -4 3 -5 11 -1 19 7 21 12 19 10 -4z"/>
<path d="M6315 928 l-60 -63 63 60 c34 33 62 61 62 62 0 8 -10 -1 -65 -59z"/>
<path d="M6586 971 c-4 -7 -5 -15 -2 -18 9 -9 19 4 14 18 -4 11 -6 11 -12 0z"/>
<path d="M6613 945 c0 -8 4 -12 9 -9 5 3 6 10 3 15 -9 13 -12 11 -12 -6z"/>
<path d="M6635 920 c3 -5 8 -10 11 -10 2 0 4 5 4 10 0 6 -5 10 -11 10 -5 0 -7
-4 -4 -10z"/>
<path d="M6613 773 c0 -9 4 -10 14 -2 7 6 13 12 13 14 0 1 -6 2 -13 2 -8 0
-14 -6 -14 -14z"/>
<path d="M6598 693 c7 -3 16 -2 19 1 4 3 -2 6 -13 5 -11 0 -14 -3 -6 -6z"/>
<path d="M6576 671 c-3 -5 1 -14 9 -21 12 -10 15 -9 15 4 0 11 5 14 12 10 7
-4 8 -3 4 4 -8 14 -33 16 -40 3z"/>
<path d="M6602 634 c-18 -20 -14 -28 5 -13 15 12 16 12 10 -3 -3 -10 -1 -20 6
-24 7 -4 9 -4 5 0 -4 5 -3 18 2 30 9 26 -8 31 -28 10z"/>
<path d="M6594 449 c-4 -7 -3 -9 4 -5 5 3 12 0 15 -6 2 -7 7 -10 11 -7 4 3 0
12 -8 18 -11 9 -16 9 -22 0z"/>
<path d="M6610 340 c0 -5 5 -10 11 -10 5 0 7 5 4 10 -3 6 -8 10 -11 10 -2 0
-4 -4 -4 -10z"/>
<path d="M6600 312 c0 -5 7 -9 15 -9 8 0 12 4 9 9 -3 4 -9 8 -15 8 -5 0 -9 -4
-9 -8z"/>
<path d="M6608 116 c-10 -7 -15 -16 -11 -19 3 -4 1 -7 -5 -7 -7 0 -12 -7 -12
-16 0 -10 6 -14 15 -10 8 3 15 1 15 -4 0 -6 -7 -10 -15 -10 -8 0 -15 -4 -15
-10 0 -5 7 -6 17 -3 11 4 14 3 9 -5 -13 -21 -39 -14 -33 8 3 11 1 23 -4 26 -5
3 -9 -3 -10 -13 0 -10 -2 -26 -4 -35 -4 -21 37 -25 52 -5 13 17 14 55 2 63 -6
3 -4 15 6 30 18 27 17 29 -7 10z"/>
<path d="M6625 99 c-4 -6 -5 -12 -2 -15 2 -3 7 2 10 11 7 17 1 20 -8 4z"/>
</g>
</svg>
